<?xml version="1.0" standalone="no"?>
<!DOCTYPE svg PUBLIC "-//W3C//DTD SVG 20010904//EN"
 "http://www.w3.org/TR/2001/REC-SVG-20010904/DTD/svg10.dtd">
<svg version="1.0" xmlns="http://www.w3.org/2000/svg"
 width="259.000000pt" height="194.000000pt" viewBox="0 0 259.000000 194.000000"
 preserveAspectRatio="xMidYMid meet">
<metadata>
Created by potrace 1.15, written by Peter Selinger 2001-2017
</metadata>
<g transform="translate(0.000000,194.000000) scale(0.100000,-0.100000)"
fill="#000000" stroke="none">
<path d="M1 1818 c1 -122 16 -135 18 -15 1 31 6 57 11 57 6 0 10 8 10 19 0 35
46 41 360 50 l305 8 -352 1 -353 2 1 -122z"/>
<path d="M738 1933 c12 -2 32 -2 45 0 12 2 2 4 -23 4 -25 0 -35 -2 -22 -4z"/>
<path d="M1003 1933 c9 -2 23 -2 30 0 6 3 -1 5 -18 5 -16 0 -22 -2 -12 -5z"/>
<path d="M1638 1933 c23 -2 61 -2 85 0 23 2 4 4 -43 4 -47 0 -66 -2 -42 -4z"/>
<path d="M1853 1933 c9 -2 23 -2 30 0 6 3 -1 5 -18 5 -16 0 -22 -2 -12 -5z"/>
<path d="M1923 1934 c3 -3 108 -7 234 -9 274 -3 397 -11 401 -25 7 -21 32 -10
32 15 l0 25 -337 0 c-185 0 -334 -3 -330 -6z"/>
<path d="M698 1863 c7 -3 16 -2 19 1 4 3 -2 6 -13 5 -11 0 -14 -3 -6 -6z"/>
<path d="M740 1851 c0 -20 13 -41 21 -35 5 3 7 10 4 15 -4 5 4 9 16 9 28 0 23
5 -13 14 -16 3 -28 2 -28 -3z"/>
<path d="M843 1833 c9 -2 23 -2 30 0 6 3 -1 5 -18 5 -16 0 -22 -2 -12 -5z"/>
<path d="M885 1821 c-3 -6 10 -7 32 -4 50 8 55 13 10 13 -20 0 -38 -4 -42 -9z"/>
<path d="M660 1764 c0 -8 5 -12 10 -9 6 3 10 10 10 16 0 5 -4 9 -10 9 -5 0
-10 -7 -10 -16z"/>
<path d="M727 1773 c-4 -3 -7 -11 -7 -17 0 -6 5 -5 12 2 6 6 9 14 7 17 -3 3
-9 2 -12 -2z"/>
<path d="M821 1773 c-1 -7 -7 -13 -14 -13 -7 0 -13 -9 -14 -20 -1 -14 2 -17
10 -9 7 5 21 17 32 25 11 9 15 13 8 10 -6 -4 -14 0 -16 6 -4 10 -6 10 -6 1z"/>
<path d="M884 1766 c-6 -6 -9 -16 -7 -22 2 -7 -6 -10 -20 -7 -19 4 -26 0 -30
-17 -4 -17 -10 -20 -29 -15 -22 7 -23 7 -3 -8 11 -9 22 -11 23 -6 2 5 12 9 22
9 10 0 30 15 44 33 21 26 28 29 36 17 5 -8 12 -11 16 -8 7 8 -15 32 -31 35 -6
0 -15 -4 -21 -11z"/>
<path d="M1021 1764 c0 -11 3 -14 6 -6 3 7 2 16 -1 19 -3 4 -6 -2 -5 -13z"/>
<path d="M740 1729 c0 -25 33 -22 38 4 2 12 -3 17 -17 17 -15 0 -21 -6 -21
-21z"/>
<path d="M915 1698 c-4 -16 -4 -32 -1 -35 3 -4 6 -1 6 6 0 8 7 11 15 7 10 -4
15 1 15 14 0 11 1 23 3 27 1 3 -6 7 -15 9 -11 1 -19 -7 -23 -28z"/>
<path d="M1833 1720 c-13 -5 -23 -14 -23 -20 0 -6 -4 -9 -9 -6 -4 3 -15 -2
-24 -12 -53 -58 -41 -142 26 -185 30 -20 44 -24 54 -16 8 7 13 8 13 1 0 -17
70 4 96 29 14 13 22 29 20 36 -3 7 -1 13 4 13 17 0 11 59 -10 99 -14 28 -31
43 -60 55 -45 18 -55 19 -87 6z m57 -44 c0 -6 -5 -4 -10 4 -8 12 -10 12 -10
-5 -1 -18 -1 -19 -11 -2 -14 23 -2 42 17 26 8 -6 14 -17 14 -23z m-71 -17 c3
-11 1 -12 -11 -2 -8 7 -19 9 -23 5 -5 -4 -5 -1 -1 6 9 16 28 11 35 -9z m121
12 c0 -11 -31 -24 -39 -16 -3 3 1 10 9 15 19 12 30 12 30 1z m-155 -41 c-3 -5
-1 -10 4 -10 6 0 11 -4 11 -10 0 -5 -9 -10 -20 -10 -23 0 -26 10 -8 28 15 15
21 16 13 2z m55 -15 c0 -7 -7 -16 -16 -19 -14 -5 -15 -4 -5 8 7 8 9 21 5 27
-4 8 -3 9 4 5 7 -4 12 -13 12 -21z m120 -5 c0 -5 -9 -10 -20 -10 -11 0 -20 5
-20 10 0 6 9 10 20 10 11 0 20 -4 20 -10z m-17 -27 c26 -5 39 -23 16 -23 -8 0
-8 -4 1 -15 14 -17 4 -39 -16 -31 -7 3 -18 -3 -23 -12 -8 -15 -12 -12 -24 18
-8 19 -18 46 -22 59 -7 22 -5 23 16 17 13 -5 36 -10 52 -13z m-119 -30 c4 -10
4 -14 0 -10 -4 4 -13 2 -21 -4 -16 -14 -17 3 -1 19 15 15 15 15 22 -5z m51
-40 c-7 -17 -8 -17 -15 2 -9 24 -2 41 12 27 6 -6 7 -19 3 -29z"/>
<path d="M671 1674 c0 -11 3 -14 6 -6 3 7 2 16 -1 19 -3 4 -6 -2 -5 -13z"/>
<path d="M750 1670 c0 -5 5 -10 10 -10 6 0 10 5 10 10 0 6 -4 10 -10 10 -5 0
-10 -4 -10 -10z"/>
<path d="M1145 1670 c3 -5 8 -10 11 -10 2 0 4 5 4 10 0 6 -5 10 -11 10 -5 0
-7 -4 -4 -10z"/>
<path d="M880 1645 c0 -8 4 -15 10 -15 5 0 7 7 4 15 -4 8 -8 15 -10 15 -2 0
-4 -7 -4 -15z"/>
<path d="M775 1610 c3 -5 16 -10 28 -9 21 0 21 1 2 9 -28 12 -37 12 -30 0z"/>
<path d="M1045 1610 c-8 -14 3 -30 21 -30 8 0 14 9 14 20 0 21 -24 28 -35 10z"/>
<path d="M1090 1591 c0 -25 6 -27 13 -6 4 8 2 17 -3 20 -6 4 -10 -3 -10 -14z"/>
<path d="M1000 1579 c0 -5 5 -7 10 -4 6 3 10 8 10 11 0 2 -4 4 -10 4 -5 0 -10
-5 -10 -11z"/>
<path d="M1115 1561 c-3 -5 -1 -12 5 -16 5 -3 10 1 10 9 0 18 -6 21 -15 7z"/>
<path d="M1498 1552 c-10 -2 -18 -7 -18 -12 0 -5 -8 -7 -17 -4 -11 4 -14 3 -7
-3 6 -4 16 -18 23 -30 14 -28 47 -30 61 -4 18 34 -4 62 -42 53z"/>
<path d="M1036 1533 c-6 -14 -5 -15 5 -6 7 7 10 15 7 18 -3 3 -9 -2 -12 -12z"/>
<path d="M1041 1464 c0 -11 3 -14 6 -6 3 7 2 16 -1 19 -3 4 -6 -2 -5 -13z"/>
<path d="M2416 1471 c-4 -6 -2 -11 3 -11 6 0 11 -12 12 -27 l0 -28 10 24 c7
18 6 28 -4 39 -10 10 -17 11 -21 3z"/>
<path d="M2335 1441 c-16 -5 -68 -14 -115 -20 -47 -7 -110 -17 -140 -21 -30
-5 -76 -12 -102 -15 -44 -6 -48 -8 -48 -34 0 -43 22 -141 31 -141 5 0 9 13 9
29 0 32 14 41 66 41 30 0 34 -3 34 -26 0 -22 4 -25 23 -21 12 3 95 15 184 28
l163 23 -7 55 c-13 111 -23 122 -98 102z"/>
<path d="M499 1265 c-32 -18 -52 -63 -43 -99 8 -35 49 -66 86 -66 40 0 88 48
88 89 0 63 -76 107 -131 76z m43 -35 c6 0 17 8 24 18 7 9 14 12 14 5 0 -6 -4
-15 -10 -18 -6 -4 -5 -13 2 -24 25 -41 -22 -80 -52 -43 -15 18 -16 27 -6 57 6
20 12 29 14 21 2 -9 8 -16 14 -16z m68 -14 c0 -3 -4 -8 -10 -11 -5 -3 -10 -1
-10 4 0 6 5 11 10 11 6 0 10 -2 10 -4z"/>
<path d="M2388 1253 c6 -2 18 -2 25 0 6 3 1 5 -13 5 -14 0 -19 -2 -12 -5z"/>
<path d="M2023 1243 c4 -3 -1 -12 -11 -20 -15 -13 -15 -13 6 -3 23 11 30 30
10 30 -6 0 -8 -3 -5 -7z"/>
<path d="M840 985 l0 -225 60 0 c111 0 160 38 160 123 0 50 -22 107 -42 107
-6 0 -2 10 10 23 17 17 22 36 22 73 0 85 -48 124 -155 124 l-55 0 0 -225z
m128 143 c13 -13 16 -66 4 -84 -4 -7 -18 -14 -32 -15 -24 -4 -25 -1 -28 54 -3
54 -2 57 21 57 12 0 28 -5 35 -12z m12 -187 c26 -49 0 -111 -47 -111 -22 0
-23 3 -23 65 l0 65 30 0 c19 0 33 -7 40 -19z"/>
<path d="M1120 985 l0 -225 90 0 90 0 0 35 0 35 -55 0 -55 0 0 190 0 190 -35
0 -35 0 0 -225z"/>
<path d="M1404 1199 c-46 -23 -54 -57 -54 -219 l0 -152 34 -34 c49 -49 114
-45 158 10 15 18 18 44 18 173 0 97 -4 162 -12 178 -21 47 -93 68 -144 44z
m69 -62 c16 -11 17 -30 15 -157 -3 -144 -3 -145 -27 -148 -13 -2 -28 1 -33 6
-14 14 -10 282 4 299 13 16 20 16 41 0z"/>
<path d="M1654 1176 l-34 -34 0 -156 0 -155 31 -36 c24 -27 39 -35 66 -35 40
0 71 14 95 44 14 17 18 41 18 119 l0 97 -50 0 c-43 0 -50 -3 -50 -19 0 -11 -3
-26 -6 -35 -4 -12 0 -16 15 -16 20 0 22 -4 19 -57 -3 -52 -5 -58 -27 -61 -13
-2 -28 1 -34 7 -6 6 -10 65 -10 147 1 119 3 139 18 150 27 20 53 1 57 -42 3
-33 6 -37 36 -39 32 -3 32 -3 32 44 -1 103 -105 148 -176 77z"/>
<path d="M640 1069 c0 -5 5 -7 10 -4 6 3 10 8 10 11 0 2 -4 4 -10 4 -5 0 -10
-5 -10 -11z"/>
<path d="M2193 1073 c-18 -2 -33 -8 -33 -13 0 -9 43 -5 110 10 l35 8 -40 -1
c-22 0 -55 -2 -72 -4z"/>
<path d="M597 1029 c-22 -13 -22 -48 1 -65 14 -10 20 -10 35 3 35 32 5 84 -36
62z"/>
<path d="M263 883 c-37 -7 -82 -60 -89 -103 -4 -26 -13 -41 -25 -45 -35 -11
-69 -64 -69 -107 0 -41 33 -98 45 -78 3 5 20 10 36 10 17 0 37 7 45 15 31 31
104 7 104 -34 0 -12 49 -60 62 -61 4 0 19 11 34 25 19 18 31 22 38 15 16 -16
51 -12 80 11 14 11 34 19 43 18 58 -5 103 30 103 81 0 44 -16 70 -56 86 -21 9
-34 21 -34 33 0 22 -54 81 -75 81 -8 0 -15 6 -15 13 0 8 -2 9 -8 1 -12 -19
-69 -27 -79 -11 -20 34 -92 60 -140 50z"/>
<path d="M2278 788 c-30 -10 -36 -24 -15 -31 6 -2 2 -2 -10 -1 -24 4 -53 -19
-53 -42 0 -17 12 -18 29 -1 11 10 11 8 1 -12 -8 -17 -9 -26 -1 -34 8 -8 11 -5
11 10 0 11 14 36 31 54 23 25 27 34 17 41 -9 7 -4 8 15 5 18 -3 27 0 27 9 0
16 -14 17 -52 2z"/>
<path d="M2355 781 c17 -8 18 -10 3 -10 -24 -1 -23 -14 3 -37 16 -14 20 -26
15 -52 -4 -28 0 -38 22 -57 25 -21 26 -25 13 -49 -8 -14 -23 -26 -33 -26 -22
0 -51 -24 -41 -34 11 -11 24 -6 17 6 -5 8 -2 9 11 4 26 -10 95 65 95 103 0 21
-5 28 -17 27 -10 0 -19 8 -21 19 -3 11 -12 25 -21 32 -9 7 -11 13 -5 13 16 0
34 -22 34 -43 0 -16 3 -17 15 -7 17 14 20 40 5 40 -5 0 -10 6 -10 13 0 20 -45
56 -77 62 -23 4 -24 4 -8 -4z m32 -27 c-3 -3 -12 -4 -19 -1 -8 3 -5 6 6 6 11
1 17 -2 13 -5z m53 -129 c0 -8 -4 -15 -10 -15 -5 0 -10 7 -10 15 0 8 5 15 10
15 6 0 10 -7 10 -15z"/>
<path d="M1887 723 c-13 -12 -7 -41 10 -47 21 -8 48 17 40 38 -6 16 -38 22
-50 9z"/>
<path d="M1517 652 c-25 -27 -22 -78 5 -96 30 -21 50 -20 82 5 29 23 33 54 10
87 -19 28 -74 30 -97 4z m62 -11 c9 -6 11 -15 6 -27 -5 -11 -7 -25 -6 -33 2
-9 -3 -12 -14 -7 -9 3 -22 6 -28 6 -7 1 -1 10 13 22 16 14 21 22 13 25 -14 5
-18 23 -5 23 4 0 13 -4 21 -9z"/>
<path d="M2182 637 c2 -20 6 -37 11 -37 4 0 7 -9 7 -19 0 -43 86 -73 122 -43
25 21 20 83 -9 109 -31 29 -35 29 -27 -3 4 -15 1 -36 -7 -51 -11 -21 -11 -27
-1 -30 13 -5 7 -23 -9 -23 -6 0 -7 5 -3 12 5 7 2 9 -9 5 -12 -4 -23 9 -47 55
-29 60 -30 61 -28 25z m125 -29 c-3 -8 -6 -5 -6 6 -1 11 2 17 5 13 3 -3 4 -12
1 -19z"/>
<path d="M790 558 c-39 -15 -58 -37 -65 -78 -11 -66 41 -130 105 -130 53 0
110 57 110 110 0 30 -27 77 -50 90 -29 16 -71 19 -100 8z m50 -28 c0 -5 7 -7
15 -4 8 4 15 1 15 -5 0 -6 6 -11 14 -11 15 0 26 -42 19 -71 -3 -10 -9 -19 -14
-19 -5 0 -9 -7 -9 -16 0 -10 -6 -14 -15 -10 -8 3 -15 1 -15 -4 0 -6 -7 -10
-15 -10 -8 0 -15 4 -15 10 0 5 -7 7 -15 4 -8 -4 -15 -1 -15 5 0 6 -7 11 -16
11 -10 0 -14 6 -10 15 3 8 1 15 -5 15 -15 0 -3 45 18 70 9 10 20 17 25 14 4
-3 8 0 8 5 0 6 7 11 15 11 8 0 15 -4 15 -10z"/>
<path d="M804 469 c-8 -14 21 -43 35 -35 19 12 13 46 -8 46 -11 0 -23 -5 -27
-11z"/>
<path d="M1778 563 c7 -3 16 -2 19 1 4 3 -2 6 -13 5 -11 0 -14 -3 -6 -6z"/>
<path d="M685 550 c3 -5 8 -10 11 -10 2 0 4 5 4 10 0 6 -5 10 -11 10 -5 0 -7
-4 -4 -10z"/>
<path d="M1830 550 c14 -4 34 -8 45 -8 16 0 15 2 -5 8 -14 4 -34 8 -45 8 -16
0 -15 -2 5 -8z"/>
<path d="M1922 534 c9 -3 19 -15 22 -27 4 -18 4 -18 3 3 -1 17 -8 25 -22 27
-14 1 -15 0 -3 -3z"/>
<path d="M1635 515 c22 -8 49 -13 60 -13 11 0 -2 6 -30 14 -63 17 -84 16 -30
-1z"/>
<path d="M1740 490 c14 -4 34 -8 45 -8 16 0 15 2 -5 8 -14 4 -34 8 -45 8 -16
0 -15 -2 5 -8z"/>
<path d="M1492 482 c-17 -11 -4 -45 15 -38 8 3 19 6 24 6 5 0 9 5 9 11 0 7 -9
9 -21 6 -15 -4 -19 -2 -15 9 6 16 5 17 -12 6z"/>
<path d="M1655 464 c28 -7 57 -13 65 -13 8 0 -7 7 -35 15 -27 7 -57 13 -65 13
-8 0 8 -7 35 -15z"/>
<path d="M1830 470 c34 -11 60 -11 35 0 -11 5 -29 8 -40 8 -16 0 -15 -2 5 -8z"/>
<path d="M1932 460 c0 -14 2 -19 5 -12 2 6 2 18 0 25 -3 6 -5 1 -5 -13z"/>
<path d="M1760 440 c14 -4 34 -8 45 -8 16 0 15 2 -5 8 -14 4 -34 8 -45 8 -16
0 -15 -2 5 -8z"/>
<path d="M1635 424 c28 -7 57 -13 65 -13 8 0 -7 7 -35 15 -27 7 -57 13 -65 13
-8 0 8 -7 35 -15z"/>
<path d="M1475 420 c4 -6 1 -18 -7 -27 -10 -13 -10 -17 0 -20 6 -3 11 -19 11
-36 -1 -18 -3 -24 -6 -14 -2 9 -8 17 -13 17 -12 0 -23 -57 -14 -71 4 -7 3 -9
-4 -6 -13 9 -10 -69 4 -82 5 -4 24 -11 42 -15 25 -4 31 -3 26 7 -4 6 1 5 12
-4 25 -20 115 -42 140 -33 15 5 16 4 4 -5 -12 -9 -11 -11 10 -11 14 0 58 -9
99 -20 84 -22 91 -23 109 -11 19 11 53 150 46 186 -4 23 -3 26 5 15 9 -13 11
-12 11 5 0 11 3 31 7 43 5 22 4 23 -16 10 -18 -11 -23 -11 -31 2 -7 11 -10 8
-10 -15 0 -21 3 -26 9 -16 6 9 11 10 15 2 4 -6 2 -11 -4 -11 -6 0 -8 -5 -4
-12 5 -8 1 -8 -10 1 -15 13 -19 13 -27 0 -5 -8 -9 -9 -9 -4 0 6 -3 6 -8 0 -4
-6 -28 -22 -54 -35 -27 -14 -48 -29 -48 -33 0 -4 9 -3 20 3 11 6 20 7 20 2 0
-12 -38 -23 -45 -12 -2 4 -26 7 -52 5 -37 -1 -51 3 -61 17 -7 10 -18 18 -24
18 -7 0 -6 -6 2 -15 10 -12 10 -15 -1 -15 -8 -1 -3 -7 11 -14 l25 -14 -27 1
c-20 2 -25 6 -22 23 2 12 -5 29 -16 39 -14 13 -20 14 -20 5 0 -9 -7 -7 -22 6
-21 19 -21 19 -14 -1 5 -14 4 -17 -3 -10 -6 6 -8 21 -4 34 6 23 7 23 19 6 8
-10 17 -16 20 -12 4 3 15 -4 25 -16 10 -12 18 -17 18 -12 0 15 -35 55 -49 55
-6 0 -9 4 -6 9 9 14 -27 72 -41 67 -7 -3 -15 4 -18 15 -4 10 -11 19 -16 19 -6
0 -7 -5 -4 -10z m41 -52 c-24 -14 -19 -26 9 -20 16 3 25 0 25 -9 0 -7 -3 -10
-6 -7 -9 9 -54 -38 -54 -56 0 -9 -4 -16 -10 -16 -14 0 -13 27 1 36 7 4 9 24 7
49 -5 40 -4 41 20 37 21 -4 22 -6 8 -14z m384 -103 c0 -2 -9 -3 -19 -2 -11 0
-18 5 -15 9 4 6 34 0 34 -7z m-78 -52 c-10 -4 -9 -9 5 -19 16 -13 15 -13 -10
-2 -20 8 -24 14 -15 20 7 4 18 7 23 7 6 0 4 -3 -3 -6z m-62 -33 c0 -5 -5 -10
-11 -10 -5 0 -7 5 -4 10 3 6 8 10 11 10 2 0 4 -4 4 -10z m127 -32 c-3 -7 -5
-2 -5 12 0 14 2 19 5 13 2 -7 2 -19 0 -25z"/>
<path d="M1838 423 c6 -2 18 -2 25 0 6 3 1 5 -13 5 -14 0 -19 -2 -12 -5z"/>
<path d="M1921 418 c0 -9 -3 -22 -6 -30 -4 -9 3 -13 20 -13 14 0 25 3 25 8 0
4 -6 7 -14 7 -8 0 -17 10 -19 23 -2 13 -5 15 -6 5z"/>
<path d="M955 410 c3 -5 8 -10 11 -10 2 0 4 5 4 10 0 6 -5 10 -11 10 -5 0 -7
-4 -4 -10z"/>
<path d="M1765 394 c28 -7 57 -13 65 -13 8 0 -7 7 -35 15 -27 7 -57 13 -65 13
-8 0 8 -7 35 -15z"/>
<path d="M1578 393 c7 -3 16 -2 19 1 4 3 -2 6 -13 5 -11 0 -14 -3 -6 -6z"/>
<path d="M1070 380 c0 -5 5 -10 10 -10 6 0 10 5 10 10 0 6 -4 10 -10 10 -5 0
-10 -4 -10 -10z"/>
<path d="M1630 380 c14 -4 34 -8 45 -8 16 0 15 2 -5 8 -14 4 -34 8 -45 8 -16
0 -15 -2 5 -8z"/>
<path d="M1708 363 c7 -3 16 -2 19 1 4 3 -2 6 -13 5 -11 0 -14 -3 -6 -6z"/>
</g>
</svg>
